<?xml version="1.0" standalone="no"?>
<!DOCTYPE svg PUBLIC "-//W3C//DTD SVG 20010904//EN"
 "http://www.w3.org/TR/2001/REC-SVG-20010904/DTD/svg10.dtd">
<svg version="1.0" xmlns="http://www.w3.org/2000/svg"
 width="1280.000000pt" height="1020.000000pt" viewBox="0 0 1280.000000 1020.000000"
 preserveAspectRatio="xMidYMid meet">
<metadata>
Created by potrace 1.15, written by Peter Selinger 2001-2017
</metadata>
<g transform="translate(0.000000,1020.000000) scale(0.100000,-0.100000)"
fill="#000000" stroke="none">
<path d="M8335 10194 c-119 -11 -238 -28 -305 -44 -246 -58 -371 -110 -568
-233 -133 -84 -232 -136 -318 -168 -135 -51 -274 -174 -379 -338 -130 -200
-145 -236 -165 -393 -6 -48 -17 -103 -26 -123 -27 -65 -82 -279 -106 -412 -20
-113 -23 -160 -23 -393 1 -298 9 -364 71 -540 48 -139 151 -358 187 -400 56
-64 82 -135 82 -225 -1 -105 -10 -148 -42 -185 -31 -37 -60 -50 -183 -80 -115
-27 -246 -96 -525 -275 -243 -157 -310 -197 -386 -236 -170 -85 -649 -286
-1084 -454 -137 -53 -312 -121 -387 -151 l-137 -54 -66 27 -65 27 -78 -19
c-129 -30 -721 -233 -929 -318 -306 -126 -491 -252 -790 -540 -170 -164 -253
-295 -333 -522 -23 -66 -69 -180 -101 -253 -99 -222 -190 -481 -270 -764 -24
-87 -46 -158 -49 -158 -15 1 -105 174 -139 265 -30 82 -109 187 -173 229 -131
87 -260 61 -360 -72 -48 -63 -137 -226 -199 -364 -110 -242 -142 -297 -249
-418 -116 -131 -217 -262 -232 -299 -5 -15 -8 -116 -6 -236 l3 -210 54 -90
c57 -95 175 -260 223 -311 26 -28 30 -42 38 -122 9 -103 19 -125 63 -152 56
-34 101 -22 179 48 25 22 43 32 45 25 2 -6 44 -92 92 -190 111 -225 197 -342
279 -382 23 -12 98 -58 165 -103 152 -101 185 -115 300 -129 239 -30 480 25
689 154 102 64 118 68 248 71 91 2 126 8 170 25 68 28 150 87 150 109 0 26 53
132 109 219 76 119 100 179 122 309 24 143 42 174 104 174 35 0 152 -76 425
-276 91 -67 208 -149 260 -184 209 -137 514 -266 815 -345 183 -48 354 -32
539 51 107 48 149 54 183 23 14 -13 47 -70 74 -125 41 -84 64 -116 132 -186
93 -95 130 -117 316 -187 171 -65 240 -79 458 -91 98 -6 190 -16 205 -22 15
-5 47 -33 72 -62 48 -57 149 -116 198 -116 17 0 39 10 53 25 23 22 25 32 25
114 l0 90 68 20 c100 30 207 51 261 51 49 0 87 -17 208 -89 93 -56 205 -53
220 7 3 14 -1 57 -11 95 -12 53 -14 73 -5 83 6 8 15 14 19 14 4 0 44 -34 88
-74 93 -86 127 -106 177 -106 25 0 44 8 67 30 17 16 39 30 50 30 31 0 66 30
78 65 15 45 -5 122 -59 237 -80 169 -215 253 -491 307 -285 55 -585 91 -766
91 l-74 0 -112 223 -111 222 -38 220 c-45 261 -66 442 -53 454 5 5 74 30 154
56 368 122 492 198 975 599 278 230 336 270 610 411 291 151 341 188 654 483
101 95 230 209 287 253 57 44 106 84 109 90 4 5 19 9 35 9 36 0 48 -17 128
-175 82 -161 111 -239 167 -440 154 -558 214 -700 344 -814 164 -143 168 -148
230 -275 101 -207 173 -314 306 -456 38 -42 131 -147 205 -235 74 -88 178
-205 232 -261 59 -60 98 -109 98 -121 0 -11 -7 -37 -15 -56 -24 -57 -19 -128
15 -215 58 -152 57 -204 -4 -264 -44 -44 -49 -62 -25 -92 33 -42 80 -51 165
-31 102 24 185 88 269 207 16 23 -8 24 300 -11 95 -11 240 -37 330 -58 l160
-38 286 0 c268 0 288 1 308 19 16 14 18 22 10 32 -14 17 -4 60 15 67 8 3 30 1
49 -5 76 -23 115 17 82 85 -22 47 -117 140 -195 191 -80 53 -146 78 -273 106
-193 43 -270 107 -381 320 -56 109 -173 395 -219 535 -165 512 -218 656 -310
840 -64 129 -105 181 -274 345 -206 201 -303 353 -590 925 -186 370 -193 387
-267 639 -67 229 -101 309 -183 437 -65 101 -93 167 -93 218 0 14 13 54 29 88
40 83 68 98 180 96 80 -2 84 -1 113 28 46 46 37 94 -48 249 -65 119 -6 178
230 229 54 12 106 26 115 31 38 20 99 101 140 186 39 81 49 93 83 109 84 37
138 104 138 170 0 44 -3 50 -86 167 -36 51 -72 108 -80 127 -18 43 -18 108 0
142 7 15 12 37 9 50 -6 33 13 54 77 86 69 35 77 61 26 91 -43 26 -47 61 -14
125 16 32 22 62 23 127 2 68 15 133 63 315 77 293 84 331 84 495 0 227 -26
298 -214 593 -236 372 -281 424 -524 607 -76 58 -175 134 -219 168 -119 95
-157 111 -500 222 -55 18 -176 67 -270 110 -194 90 -207 93 -410 128 -123 21
-187 26 -360 27 -115 1 -228 1 -250 -1z"/>
</g>
</svg>
